<svg width="642" height="477" viewBox="0 0 642 477" fill="none" xmlns="http://www.w3.org/2000/svg">
  <defs>
    <radialGradient id="avatarA" cx="0" cy="0" r="1" gradientUnits="userSpaceOnUse" gradientTransform="translate(39 181) rotate(132) scale(18)">
      <stop stop-color="#E9FAFF"/>
      <stop offset="0.37" stop-color="#7DDFFF"/>
      <stop offset="1" stop-color="#45C3F7"/>
    </radialGradient>
    <radialGradient id="avatarB" cx="0" cy="0" r="1" gradientUnits="userSpaceOnUse" gradientTransform="translate(39 229) rotate(132) scale(18)">
      <stop stop-color="#E9FAFF"/>
      <stop offset="0.37" stop-color="#7DDFFF"/>
      <stop offset="1" stop-color="#45C3F7"/>
    </radialGradient>
    <filter id="shadow" x="-16" y="-16" width="674" height="509" filterUnits="userSpaceOnUse" color-interpolation-filters="sRGB">
      <feDropShadow dx="0" dy="10" stdDeviation="18" flood-color="#000" flood-opacity="0.16"/>
    </filter>
  </defs>
  <g filter="url(#shadow)">
    <rect x="2" y="1" width="638" height="475" rx="8" fill="#fff"/>
    <rect x="2.5" y="1.5" width="637" height="474" rx="7.5" stroke="#E5E7EB"/>
  </g>
  <text x="24" y="37" fill="#333" font-family="Arial, 'Microsoft YaHei', sans-serif" font-size="16" font-weight="700">管理协作者</text>
  <path d="M615 24L624 33M624 24L615 33" stroke="#999" stroke-width="1.5" stroke-linecap="round"/>
  <path d="M1 57.5H641" stroke="#EBEDF0"/>
  <rect x="24.5" y="78.5" width="599" height="40" rx="7.5" fill="#fff" stroke="#E5E7EB"/>
  <path d="M582.5 79V118" stroke="#EBEDF0"/>
  <text x="32" y="103" fill="#C7CCD4" font-family="Arial, 'Microsoft YaHei', sans-serif" font-size="14">搜索用户昵称、手机号或邮箱 添加协作权限</text>
  <path d="M602 93V103M597 98H607" stroke="#333" stroke-width="2" stroke-linecap="round"/>
  <text x="24" y="142" fill="#999" font-family="Arial, 'Microsoft YaHei', sans-serif" font-size="13">所有可访问此库的用户</text>
  <circle cx="40" cy="181" r="16" fill="url(#avatarA)"/>
  <circle cx="40" cy="181" r="8" fill="#77DDFB" opacity="0.95"/>
  <circle cx="36" cy="177" r="5" fill="#EFFBFF" opacity="0.9"/>
  <path d="M31 192C34 187 39 185 44 186C48 187 52 190 54 194C50 197 46 199 40 199C36 199 33 197 31 192Z" fill="#BFF3FF" opacity="0.78"/>
  <text x="68" y="186" fill="#333" font-family="Arial, 'Microsoft YaHei', sans-serif" font-size="14">项目经理03</text>
  <circle cx="538" cy="181" r="2" fill="#FF9F37"/>
  <text x="548" y="186" fill="#333" font-family="Arial, 'Microsoft YaHei', sans-serif" font-size="14">管理者</text>
  <circle cx="40" cy="229" r="16" fill="url(#avatarB)"/>
  <circle cx="40" cy="229" r="8" fill="#77DDFB" opacity="0.95"/>
  <circle cx="36" cy="225" r="5" fill="#EFFBFF" opacity="0.9"/>
  <path d="M31 240C34 235 39 233 44 234C48 235 52 238 54 242C50 245 46 247 40 247C36 247 33 245 31 240Z" fill="#BFF3FF" opacity="0.78"/>
  <text x="68" y="234" fill="#333" font-family="Arial, 'Microsoft YaHei', sans-serif" font-size="14">项目经理用户03</text>
  <circle cx="538" cy="229" r="2" fill="#999"/>
  <text x="548" y="234" fill="#333" font-family="Arial, 'Microsoft YaHei', sans-serif" font-size="14">查看者</text>
  <path d="M602 225L607 230L612 225" stroke="#B8BEC8" stroke-width="1.4" stroke-linecap="round" stroke-linejoin="round"/>
</svg>
